<?xml version="1.0" encoding="utf-8"?>
<!-- Generator: Adobe Illustrator 26.0.2, SVG Export Plug-In . SVG Version: 6.00 Build 0)  -->
<svg version="1.1" id="Layer_1" xmlns="http://www.w3.org/2000/svg" xmlns:xlink="http://www.w3.org/1999/xlink" x="0px" y="0px"
	 viewBox="0 0 512 512" style="enable-background:new 0 0 512 512;" xml:space="preserve">
<style type="text/css">
	.st0{fill:#4F46E5;}
	.st1{fill:#6161E5;}
</style>
<path class="st0" d="M4.8,353.3c5-22.7,13.5-45,25.2-66.3c32.5-59.2,108.8-184.1,197.4-234.2c19-10.8,38.5-18.1,58.4-20.6l0.9-0.1
	h1.1c4.5,0,20.7,1.8,39.8,24.9c22.3,26.9,41.4,73.1,57,137.6l0,0.1c0.2,0.8,19.8,84.4,49.3,143.7l0.2,0.4
	c0.1,0.1,5.5,11.7,18.2,11.7c7.3,0,15.6-3.7,24.7-10.9c9.2-7.3,22.3-6,29.8,3c7.2,8.6,6.6,21.1-1.3,29
	c-22.6,22.5-69.6,69.3-106,87.7c-2.8,1.4-5.8,2.7-9.1,3.8h0c-18.9,6.4-39,4.9-56.8-4.2c-17.6-9-30.5-24.4-36.4-43.2
	c-3.4-11-6.1-23.5-8-37.4l0-0.2c-3-23.8-9.5-69.9-19.7-110.2c-15.9-62.5-30.3-71-33-72.1l-0.2-0.1c0,0-0.8-0.3-2.2-0.3
	c-2,0-4.3,0.4-6.8,1.3c-15.3,5.6-38.8,31.8-71.1,113.7l-0.1,0.1c-0.1,0.2-0.1,0.2-0.4,1.1l-0.7,1.9c-1.8,4.5-2.7,9.1-2.9,13.6
	c-0.3,6.6,0.6,16,6.3,23.4c6.6,8.5,17.7,12.3,33.8,11.4c7.6-0.4,14.7,3.1,19,9.5s4.8,14.3,1.5,21.2c-10.2,21.3-27.7,42.2-48.1,57.2
	c-26.5,19.6-58.1,30-91.2,30h-0.1c-1.5,0-37.1-0.6-59.1-33.5C-0.7,424-3.9,392.7,4.8,353.3z"/>
<path class="st1" d="M4.8,353.3c5-22.7,13.5-45,25.2-66.3c32.5-59.2,108.8-184.1,197.4-234.2v144.1c-15.3,5.6-38.8,31.8-71.1,113.7
	l-0.1,0.1c-0.1,0.2-0.1,0.2-0.4,1.1l-0.7,1.9c-1.8,4.5-2.7,9.1-2.9,13.6c-0.3,6.6,0.6,16,6.3,23.4c6.6,8.5,17.7,12.3,33.8,11.4
	c7.6-0.4,14.7,3.1,19,9.5s4.8,14.3,1.5,21.2c-10.2,21.3-27.7,42.2-48.1,57.2c-26.5,19.6-58.1,30-91.2,30h-0.1
	c-1.5,0-37.1-0.6-59.1-33.5C-0.7,424-3.9,392.7,4.8,353.3z"/>
</svg>
